<?xml version="1.0" encoding="iso-8859-1"?>
<!-- Generator: Adobe Illustrator 17.0.0, SVG Export Plug-In . SVG Version: 6.00 Build 0)  -->
<!DOCTYPE svg PUBLIC "-//W3C//DTD SVG 1.1//EN" "http://www.w3.org/Graphics/SVG/1.1/DTD/svg11.dtd">
<svg version="1.1" id="Layer_1" xmlns="http://www.w3.org/2000/svg" xmlns:xlink="http://www.w3.org/1999/xlink" x="0px" y="0px"
	 width="747px" height="358px" viewBox="0 0 747 358" style="enable-background:new 0 0 747 358;" xml:space="preserve">

<g>
	<path style="fill:#fff;" d="M376.061,199.802h47.937c0,0,0.034-28.343,0.09-48.811L498.9,92.503V30.729L417.74,94.18
		c-1.573-4.344-3.316-8.177-5.096-11.527l-0.011,0.006c-0.293-0.489-0.57-0.977-0.879-1.466
		c-14.98-24.685-42.271-41.066-73.355-40.658c-46.374,0.618-83.32,39.177-83.32,85.567v73.701l47.937-23.677v-50.414
		c0-20.484,16.772-37.63,37.24-37.24c19.849,0.39,35.806,16.592,35.806,36.523V199.802z"/>
	<path style="fill:#fff;" d="M498.9,199.802v-64.314c-35.813,0.039-64.906,28.684-65.706,64.314H498.9z"/>
	<path style="fill:#fff;" d="M128.063,282.725v-0.202c0-6.682-2.126-12.25-6.074-16.198c-4.657-4.657-11.642-7.188-20.653-7.188
		H68.94l9.124,14.09l21.956-0.018c7.593,0,12.25,3.442,12.25,10.124v0.202c0,5.973-4.353,10.023-11.946,10.023L68.94,293.57v36.433
		h15.591v-22.677h12.25l15.186,22.677h18.223l-17.312-25.309C121.888,301.353,128.063,294.165,128.063,282.725z"/>
	<rect x="188.106" y="259.137" style="fill:#fff;" width="15.59" height="70.866"/>
	<polygon style="fill:#fff;" points="148.453,316.134 148.453,301.252 177.302,301.252 171.137,287.382 148.453,287.382 
		148.453,273.006 183.632,273.006 177.468,259.137 132.964,259.137 132.964,330.003 183.693,330.003 177.529,316.134 	"/>
	<polygon style="fill:#fff;" points="678.873,316.134 649.797,316.134 649.797,301.252 678.646,301.252 672.481,287.382 
		649.797,287.382 649.797,273.006 684.976,273.006 678.812,259.137 634.308,259.137 634.308,330.003 685.037,330.003 	"/>
	<polygon style="fill:#fff;" points="304.923,259.1 304.938,259.137 298.267,259.137 283.587,307.124 267.693,258.934 
		254.329,258.934 238.435,307.124 223.755,259.137 207.051,259.137 231.247,330.51 244.813,330.51 260.809,284.142 276.804,330.51 
		290.37,330.51 310.126,272.231 323.416,305.772 327.893,316.681 304.241,316.681 299.68,330.003 333.36,330.003 334.803,330.003 
		349.66,330.003 319.288,259.1 	"/>
	<polygon style="fill:#fff;" points="411.675,286.888 383.068,286.888 383.068,258.985 367.555,258.985 367.555,329.496 
		383.068,329.496 383.068,301.191 411.675,301.191 411.675,329.496 427.187,329.496 427.187,258.985 411.675,258.985 	"/>
	<path style="fill:#fff;" d="M468.925,257.777c-21.758,0-37.572,16.419-37.572,36.465v0.201
		c0,20.045,15.613,36.263,37.371,36.263s37.572-16.419,37.572-36.464v-0.202C506.296,273.994,490.683,257.777,468.925,257.777z
		 M490.078,294.442c0,12.088-8.663,21.959-21.154,21.959c-12.491,0-21.355-10.073-21.355-22.16v-0.202
		c0-12.088,8.663-21.959,21.153-21.959s21.355,10.073,21.355,22.161V294.442z"/>
	<path style="fill:#fff;" d="M556.775,299.378c0,11.181-5.742,16.923-15.211,16.923c-9.468,0-15.21-5.943-15.21-17.427v-39.889
		h-15.512v40.292c0,20.751,11.584,31.327,30.521,31.327c18.938,0,30.924-10.476,30.924-31.831v-39.788h-15.512V299.378z"/>
	<path style="fill:#fff;" d="M607.074,287.29c-12.188-3.123-15.21-4.634-15.21-9.267v-0.201c0-3.425,3.123-6.145,9.066-6.145
		c5.943,0,12.088,2.619,18.333,6.95l8.058-11.685c-7.152-5.742-15.915-8.965-26.19-8.965c-14.404,0-24.679,8.462-24.679,21.254
		v0.201c0,14.001,9.167,17.93,23.369,21.556c11.785,3.022,14.203,5.037,14.203,8.965v0.202c0,4.13-3.828,6.648-10.174,6.648
		c-8.059,0-14.707-3.324-21.053-8.562l-9.167,10.979c8.462,7.555,19.24,11.282,29.917,11.282c15.21,0,25.888-7.857,25.888-21.859
		v-0.202C629.436,296.155,621.378,291.018,607.074,287.29z"/>
</g>

</svg>
